<svg xmlns="http://www.w3.org/2000/svg" viewBox="0 0 179.72 64.07"><defs><style>.cls-1{fill:#609f27;}.cls-2,.cls-3{fill:#005a7f;}.cls-3{stroke:#005a7f;stroke-miterlimit:10;}</style></defs><title>Recurso 1</title><g id="Capa_2" data-name="Capa 2"><g id="Controles_bootstrap" data-name="Controles bootstrap"><path class="cls-1" d="M55.19,40.53V53.4H53.87V40.53a3.37,3.37,0,0,0-3.38-3.38,3.34,3.34,0,0,0-2.42,1,3.22,3.22,0,0,0-1,2.4V53.4H45.69V40.53a3.38,3.38,0,1,0-6.77,0V53.4H37.56V35.78h1.36v1.46a4.42,4.42,0,0,1,3.38-1.41,4.3,4.3,0,0,1,4,2.26,4.38,4.38,0,0,1,4.14-2.26,4.65,4.65,0,0,1,4.7,4.7Z"/><path class="cls-1" d="M68,52.09a7.19,7.19,0,0,0,5.26-2.21l.94.94a8.81,8.81,0,0,1-15-6.25,8.44,8.44,0,0,1,2.58-6.23,8.8,8.8,0,0,1,15,6.23v.7H60.5A7.49,7.49,0,0,0,68,52.09Zm5.05-13a7.25,7.25,0,0,0-5.05-2,7.37,7.37,0,0,0-5.1,2A7.1,7.1,0,0,0,60.45,44H75.39A7.14,7.14,0,0,0,73,39.09Z"/><path class="cls-1" d="M96.17,27h1.36V53.4H96.17V49.27a8.47,8.47,0,0,1-3.15,3,8.61,8.61,0,0,1-4.28,1.1,8.77,8.77,0,0,1-6.2-15,8.46,8.46,0,0,1,6.2-2.58A8.62,8.62,0,0,1,93,36.93a8.48,8.48,0,0,1,3.15,3ZM83.48,49.88a7.18,7.18,0,0,0,5.26,2.21A7.11,7.11,0,0,0,94,49.88a7.46,7.46,0,0,0,0-10.55,7.15,7.15,0,0,0-5.24-2.19,7.44,7.44,0,0,0-5.26,12.74Z"/><path class="cls-1" d="M101.38,33.57a.58.58,0,0,1,.66-.66q.7,0,.7.66a.72.72,0,0,1-.7.7Q101.38,34.27,101.38,33.57Zm0,19.83V35.73h1.36V53.4Z"/><path class="cls-1" d="M122.76,35.83h1.32V53.4h-1.32V49.27a8.74,8.74,0,0,1-3.17,3,8.6,8.6,0,0,1-4.3,1.13,8.77,8.77,0,0,1-6.2-15,8.46,8.46,0,0,1,6.2-2.58,8.61,8.61,0,0,1,4.3,1.13,8.74,8.74,0,0,1,3.17,3ZM110,49.9a7.48,7.48,0,0,0,10.57-10.57A7.48,7.48,0,0,0,110,49.9Z"/><path class="cls-1" d="M42.24,22.49a11.8,11.8,0,0,0,16.73,0l.94.94a13.16,13.16,0,0,1-18.61,0,12.68,12.68,0,0,1-3.85-9.3A12.76,12.76,0,0,1,41.3,4.8,12.64,12.64,0,0,1,50.6.92a12.91,12.91,0,0,1,9.3,3.9L59,5.76a11.83,11.83,0,0,0-16.73,0,11.38,11.38,0,0,0-3.48,8.39A11.4,11.4,0,0,0,42.24,22.49Z"/><path class="cls-1" d="M64.37,13.8a8.79,8.79,0,0,1,3.15-3A8.47,8.47,0,0,1,71.8,9.66V11a7.38,7.38,0,0,0-7.43,7.43v8.84H63V9.66h1.36Z"/><path class="cls-1" d="M82.94,26a7.19,7.19,0,0,0,5.26-2.21l.94.94a8.79,8.79,0,0,1-12.45,0,8.51,8.51,0,0,1-2.58-6.25,8.44,8.44,0,0,1,2.58-6.23,8.8,8.8,0,0,1,15,6.23v.7H75.46A7.49,7.49,0,0,0,82.94,26ZM88,13a7.25,7.25,0,0,0-5.05-2,7.37,7.37,0,0,0-5.1,2,7.1,7.1,0,0,0-2.42,4.84H90.36A7.14,7.14,0,0,0,88,13Z"/><path class="cls-1" d="M111,9.71h1.32V27.28H111V23.15a8.74,8.74,0,0,1-3.17,3,8.6,8.6,0,0,1-4.3,1.13,8.46,8.46,0,0,1-6.2-2.58,8.46,8.46,0,0,1-2.58-6.2,8.46,8.46,0,0,1,2.58-6.2,8.46,8.46,0,0,1,6.2-2.58,8.61,8.61,0,0,1,4.3,1.13,8.74,8.74,0,0,1,3.17,3ZM98.28,23.78A7.47,7.47,0,0,0,111,18.5a7.47,7.47,0,1,0-14.94,0A7.2,7.2,0,0,0,98.28,23.78Z"/><path class="cls-1" d="M124.76,26A7.19,7.19,0,0,0,130,23.76l.94.94a8.79,8.79,0,0,1-12.45,0,8.51,8.51,0,0,1-2.58-6.25,8.44,8.44,0,0,1,2.58-6.23,8.55,8.55,0,0,1,6.25-2.56,8.46,8.46,0,0,1,6.2,2.58l-.94.94A7.19,7.19,0,0,0,124.76,11a7.28,7.28,0,0,0-5.31,2.19,7.16,7.16,0,0,0-2.21,5.29A7.54,7.54,0,0,0,124.76,26Z"/><path class="cls-1" d="M135,7.45a.58.58,0,0,1,.66-.66q.7,0,.7.66a.72.72,0,0,1-.7.7Q135,8.16,135,7.45Zm0,19.83V9.61h1.36V27.28Z"/><path class="cls-1" d="M142.64,12.22a8.82,8.82,0,0,1,15.06,6.23,8.82,8.82,0,0,1-8.84,8.84,8.44,8.44,0,0,1-6.23-2.58,8.55,8.55,0,0,1-2.56-6.25A8.47,8.47,0,0,1,142.64,12.22Zm1,11.54A7.08,7.08,0,0,0,148.87,26a7.54,7.54,0,0,0,7.52-7.52,7.09,7.09,0,0,0-2.21-5.26A7.32,7.32,0,0,0,148.87,11a7.38,7.38,0,0,0-7.43,7.43A7.32,7.32,0,0,0,143.61,23.76Zm1.5-15.37h1.69l5.87-5.83H151Z"/><path class="cls-1" d="M170.21,9.66a8.56,8.56,0,0,1,6.25,2.56A8.44,8.44,0,0,1,179,18.45v8.84h-1.32V18.45a7.09,7.09,0,0,0-2.21-5.26A7.32,7.32,0,0,0,170.21,11a7.38,7.38,0,0,0-7.43,7.43v8.84h-1.36V9.66h1.36V13.8a8.79,8.79,0,0,1,3.15-3A8.47,8.47,0,0,1,170.21,9.66Z"/><path class="cls-2" d="M37.38,64.07V56.23h.39v7.84Z"/><path class="cls-2" d="M41.86,58.83a2.54,2.54,0,0,1,1.86.76,2.51,2.51,0,0,1,.77,1.85v2.63H44.1V61.44a2.11,2.11,0,0,0-.66-1.56,2.18,2.18,0,0,0-1.58-.64,2.19,2.19,0,0,0-2.21,2.21v2.63h-.41V58.83h.41v1.23a2.61,2.61,0,0,1,.94-.89A2.52,2.52,0,0,1,41.86,58.83Z"/><path class="cls-2" d="M48.22,58.83a2.54,2.54,0,0,1,1.86.76,2.51,2.51,0,0,1,.77,1.85v2.63h-.39V61.44a2.11,2.11,0,0,0-.66-1.56,2.18,2.18,0,0,0-1.58-.64A2.19,2.19,0,0,0,46,61.44v2.63h-.41V58.83H46v1.23a2.61,2.61,0,0,1,.94-.89A2.52,2.52,0,0,1,48.22,58.83Z"/><path class="cls-2" d="M52.45,59.59a2.64,2.64,0,1,1-.76,1.85A2.52,2.52,0,0,1,52.45,59.59ZM52.73,63a2.11,2.11,0,0,0,1.56.66,2.24,2.24,0,0,0,2.24-2.24,2.11,2.11,0,0,0-.66-1.56,2.18,2.18,0,0,0-1.58-.64,2.19,2.19,0,0,0-2.21,2.21A2.18,2.18,0,0,0,52.73,63Z"/><path class="cls-2" d="M61.32,58.83h.42l-1.9,5.24h-.43l-1.9-5.24h.42l1.7,4.67Z"/><path class="cls-2" d="M67.22,58.84h.39v5.23h-.39V62.84a2.6,2.6,0,0,1-.94.89,2.56,2.56,0,0,1-1.28.34,2.61,2.61,0,0,1,0-5.23,2.56,2.56,0,0,1,1.28.34,2.6,2.6,0,0,1,.94.89ZM63.43,63a2.23,2.23,0,1,0-.65-1.57A2.14,2.14,0,0,0,63.43,63Z"/><path class="cls-2" d="M71.58,58.83a2.54,2.54,0,0,1,1.86.76,2.51,2.51,0,0,1,.77,1.85v2.63h-.39V61.44a2.11,2.11,0,0,0-.66-1.56,2.18,2.18,0,0,0-1.58-.64,2.19,2.19,0,0,0-2.21,2.21v2.63H69V58.83h.41v1.23a2.61,2.61,0,0,1,.94-.89A2.52,2.52,0,0,1,71.58,58.83Z"/><path class="cls-2" d="M79.92,56.23h.41v7.84h-.41V62.84a2.52,2.52,0,0,1-.94.9,2.56,2.56,0,0,1-1.27.33,2.61,2.61,0,0,1,0-5.23,2.56,2.56,0,0,1,1.27.33,2.52,2.52,0,0,1,.94.9ZM76.15,63a2.14,2.14,0,0,0,1.56.66A2.11,2.11,0,0,0,79.27,63a2.22,2.22,0,0,0,0-3.14,2.12,2.12,0,0,0-1.56-.65A2.21,2.21,0,0,0,76.15,63Z"/><path class="cls-2" d="M81.91,59.59a2.64,2.64,0,1,1-.76,1.85A2.52,2.52,0,0,1,81.91,59.59ZM82.2,63a2.11,2.11,0,0,0,1.56.66A2.24,2.24,0,0,0,86,61.44a2.11,2.11,0,0,0-.66-1.56,2.18,2.18,0,0,0-1.58-.64,2.19,2.19,0,0,0-2.21,2.21A2.18,2.18,0,0,0,82.2,63Z"/><path class="cls-2" d="M92.79,56.23a2,2,0,0,1,1.45.61,2,2,0,0,1,.6,1.46,2.05,2.05,0,0,1-2.05,2.05H90.72v3.72h-.39V56.23Zm0,3.72A1.61,1.61,0,0,0,94,59.47a1.66,1.66,0,0,0-1.18-2.83H90.72v3.31Z"/><path class="cls-2" d="M100.54,58.83h.41v5.24h-.41V62.84a2.61,2.61,0,0,1-.94.89,2.62,2.62,0,0,1-3.9-2.28V58.83h.39v2.61a2.24,2.24,0,0,0,2.24,2.24A2.11,2.11,0,0,0,99.9,63a2.18,2.18,0,0,0,.64-1.58Z"/><path class="cls-2" d="M102.64,64.07h-.39V56.23h.39v3.84a2.6,2.6,0,0,1,.94-.89,2.56,2.56,0,0,1,1.28-.34,2.61,2.61,0,0,1,0,5.23,2.56,2.56,0,0,1-1.28-.34,2.6,2.6,0,0,1-.94-.89Zm2.22-4.83a2.22,2.22,0,0,0,0,4.44,2.11,2.11,0,0,0,1.56-.66,2.22,2.22,0,0,0,0-3.14A2.13,2.13,0,0,0,104.86,59.24Z"/><path class="cls-2" d="M108.6,64.07V57.35h.45v6.72Z"/><path class="cls-2" d="M110.52,58.17a.17.17,0,0,1,.2-.2q.21,0,.21.2a.22.22,0,0,1-.21.21C110.58,58.38,110.52,58.31,110.52,58.17Zm0,5.9V58.82h.41v5.25Z"/><path class="cls-2" d="M114.64,63.68A2.14,2.14,0,0,0,116.2,63l.28.28a2.62,2.62,0,0,1-3.7-3.71,2.54,2.54,0,0,1,1.86-.76,2.52,2.52,0,0,1,1.84.77l-.28.28a2.14,2.14,0,0,0-1.56-.66,2.16,2.16,0,0,0-1.58.65,2.13,2.13,0,0,0-.66,1.57,2.24,2.24,0,0,0,2.24,2.24Z"/><path class="cls-2" d="M117.68,58.17a.17.17,0,0,1,.2-.2q.21,0,.21.2a.22.22,0,0,1-.21.21C117.75,58.38,117.68,58.31,117.68,58.17Zm0,5.9V58.82h.41v5.25Z"/><path class="cls-2" d="M124.07,56.23h.41v7.84h-.41V62.84a2.52,2.52,0,0,1-.94.9,2.56,2.56,0,0,1-1.27.33,2.61,2.61,0,0,1,0-5.23,2.56,2.56,0,0,1,1.27.33,2.52,2.52,0,0,1,.94.9ZM120.3,63a2.14,2.14,0,0,0,1.56.66,2.11,2.11,0,0,0,1.56-.66,2.22,2.22,0,0,0,0-3.14,2.12,2.12,0,0,0-1.56-.65A2.21,2.21,0,0,0,120.3,63Z"/><path class="cls-2" d="M130.15,58.84h.39v5.23h-.39V62.84a2.6,2.6,0,0,1-.94.89,2.56,2.56,0,0,1-1.28.34,2.61,2.61,0,0,1,0-5.23,2.56,2.56,0,0,1,1.28.34,2.6,2.6,0,0,1,.94.89ZM126.35,63a2.23,2.23,0,1,0-.65-1.57A2.14,2.14,0,0,0,126.35,63Z"/><path class="cls-2" d="M136.49,56.23h.41v7.84h-.41V62.84a2.52,2.52,0,0,1-.94.9,2.56,2.56,0,0,1-1.27.33,2.61,2.61,0,0,1,0-5.23,2.56,2.56,0,0,1,1.27.33,2.52,2.52,0,0,1,.94.9ZM132.72,63a2.14,2.14,0,0,0,1.56.66,2.11,2.11,0,0,0,1.56-.66,2.22,2.22,0,0,0,0-3.14,2.12,2.12,0,0,0-1.56-.65A2.21,2.21,0,0,0,132.72,63Z"/><path class="cls-2" d="M142,62.64a3.51,3.51,0,0,0,5,0l.28.28a3.91,3.91,0,1,1-2.77-6.69,3.84,3.84,0,0,1,2.77,1.16l-.28.28a3.52,3.52,0,1,0-5,5Z"/><path class="cls-2" d="M148.53,60.06a2.62,2.62,0,0,1,.94-.89,2.52,2.52,0,0,1,1.27-.34v.41a2.19,2.19,0,0,0-2.21,2.21v2.63h-.4V58.83h.4Z"/><path class="cls-2" d="M154.05,63.68a2.14,2.14,0,0,0,1.56-.66l.28.28a2.62,2.62,0,0,1-3.7-3.71,2.62,2.62,0,0,1,4.47,1.85v.21h-4.83a2.23,2.23,0,0,0,2.22,2Zm1.5-3.86a2.16,2.16,0,0,0-1.5-.58,2.19,2.19,0,0,0-1.52.59,2.11,2.11,0,0,0-.72,1.44h4.44A2.12,2.12,0,0,0,155.55,59.82Z"/><path class="cls-2" d="M162.41,58.84h.39v5.23h-.39V62.84a2.6,2.6,0,0,1-.94.89,2.56,2.56,0,0,1-1.28.34,2.61,2.61,0,0,1,0-5.23,2.56,2.56,0,0,1,1.28.34,2.6,2.6,0,0,1,.94.89ZM158.61,63a2.23,2.23,0,1,0-.65-1.57A2.14,2.14,0,0,0,158.61,63Z"/><path class="cls-2" d="M166.64,58.83v.41h-1.29v4.83h-.41V59.24h-1.29v-.41h1.29V57.57h.41v1.26Z"/><path class="cls-2" d="M167.6,58.17a.17.17,0,0,1,.2-.2q.21,0,.21.2a.22.22,0,0,1-.21.21C167.67,58.38,167.6,58.31,167.6,58.17Zm0,5.9V58.82H168v5.25Z"/><path class="cls-2" d="M172.69,58.83h.42l-1.9,5.24h-.43l-1.9-5.24h.42L171,63.5Z"/><path class="cls-2" d="M178.59,58.84H179v5.23h-.39V62.84a2.6,2.6,0,0,1-.94.89,2.56,2.56,0,0,1-1.28.34,2.61,2.61,0,0,1,0-5.23,2.56,2.56,0,0,1,1.28.34,2.6,2.6,0,0,1,.94.89ZM174.79,63a2.23,2.23,0,1,0-.65-1.57A2.14,2.14,0,0,0,174.79,63Z"/><ellipse class="cls-3" cx="173.35" cy="33.54" rx="5.79" ry="5.93" transform="translate(35.06 143.32) rotate(-49.39)"/><ellipse class="cls-3" cx="158.69" cy="44.93" rx="4.69" ry="4.81" transform="translate(21.3 136.17) rotate(-49.4)"/><ellipse class="cls-2" cx="144.02" cy="50.37" rx="3.08" ry="3.15" transform="translate(12.05 126.93) rotate(-49.4)"/><ellipse class="cls-2" cx="129.36" cy="52.03" rx="2.49" ry="2.55" transform="translate(5.67 116.38) rotate(-49.4)"/><path class="cls-2" d="M11.08,60.11H24.93s-.53,3.46-7.14,3.55S11.08,60.11,11.08,60.11Z"/><path class="cls-2" d="M26.88,46.53a1.6,1.6,0,0,1-1.6,1.6H10.46a1.6,1.6,0,0,1-1.6-1.6h0a1.6,1.6,0,0,1,1.6-1.6H25.28a1.6,1.6,0,0,1,1.6,1.6Z"/><path class="cls-2" d="M26.88,57.18a1.6,1.6,0,0,1-1.6,1.6H10.46a1.6,1.6,0,0,1-1.6-1.6h0a1.6,1.6,0,0,1,1.6-1.6H25.28a1.6,1.6,0,0,1,1.6,1.6Z"/><path class="cls-2" d="M21.56,52c0,.88-.5,1.6-1.12,1.6H10c-.62,0-1.13-.72-1.13-1.6h0c0-.88.5-1.6,1.13-1.6H20.43c.62,0,1.12.71,1.12,1.6Z"/><path class="cls-2" d="M16,29.88c-.74-1.22-1.81.77-1.81.77s-1.54,1.47-1.37,4.87c.45,6.41,4.36,6.11,4.36,6.11s3.7-.12,4.39-5.88a12.05,12.05,0,0,0-2.49-6.49S16.95,27,16.23,26.11c-2.19-3.42-2.48-7.77.69-8.06s3.48,4.52,1.48,7.11c-1.06,1.12-.37,1.93-.37,1.93s.48,1.3,1.48-.08a9.36,9.36,0,0,0,2.07-5.64c.05-2.57-1.13-6.14-4.37-5.83-4.6,0-4.37,5.21-4.37,5.21s-.68,4.37,4.36,9.35c3.29,3.82,2.69,6.11,2.69,6.11s-.57,3.4-2.69,2.94c-3.79-.69-2.46-5.87-1.92-6.57S16.76,31.09,16,29.88Z"/><ellipse class="cls-2" cx="17.2" cy="7.01" rx="2.49" ry="2.54"/><ellipse class="cls-2" cx="11.11" cy="8.21" rx="1.47" ry="1.49"/><ellipse class="cls-2" cx="7.79" cy="11.2" rx="0.57" ry="0.58"/><path class="cls-2" d="M11.49,44.69c2.14.8,2.24-.61.8-1.6-3.82-2-2.14-4.36-2.14-4.36S10,33.43,8.29,31,2.68,22.56,2.41,16.29C2.59,14.56,2.41,2.58,18.71,2c12-.27,15.09,12.18,15.13,14.69s1.6,5.79-6.5,13.53c-3,3.34-4.09,12.08-5.16,12.29s-3.92,1.07-4.05-1-1.83-1.78-2.18-.18c.3,1.15-.09,3,4.45,3.29,2.81-.09,3.85-.65,4.63-3.47s1.78-8.37,5.79-11.57c6.05-6.77,5.43-13.09,5.43-13.09S35.44.45,18.62,0C.19.18,0,14.69,0,16.38c-.27,7.21,4.81,12.46,6.5,15S8,35.79,8.2,40.77A4.51,4.51,0,0,0,11.49,44.69Z"/></g></g></svg>